<?xml version="1.0" encoding="UTF-8"?>
<svg width="18px" height="18px" viewBox="0 0 18 18" version="1.1" xmlns="http://www.w3.org/2000/svg" xmlns:xlink="http://www.w3.org/1999/xlink">
    <title>H5_login</title>
    <g id="H5端-回流活动" stroke="none" stroke-width="1" fill="none" fill-rule="evenodd">
        <g id="十一站-H5端回流活动组件库" transform="translate(-384.000000, -292.000000)" fill="#FFFFFF" fill-rule="nonzero">
            <g id="H5_login" transform="translate(384.000000, 292.000000)">
                <path d="M11.5348837,6 C12.2964474,6 12.9222987,6.59488808 12.9932931,7.35553999 L13,7.5 L13,11.5 C13,12.2796961 12.4189465,12.9204487 11.6759842,12.9931334 L11.5348837,13 L9.58139535,13 C9.31167489,13 9.09302326,12.7761424 9.09302326,12.5 C9.09302326,12.2545401 9.26578504,12.0503916 9.49360985,12.0080557 L9.58139535,12 L11.5348837,12 C11.7746352,12 11.9740361,11.8231248 12.0153875,11.5898756 L12.0232558,11.5 L12.0232558,7.5 C12.0232558,7.25454011 11.850494,7.05039163 11.6226692,7.00805567 L11.5348837,7 L9.58139535,7 C9.31167489,7 9.09302326,6.77614237 9.09302326,6.5 C9.09302326,6.25454011 9.26578504,6.05039163 9.49360985,6.00805567 L9.58139535,6 L11.5348837,6 Z M7.7519077,6.55859375 L10.7148437,9.30078125 C10.8301235,9.40792411 10.8301235,9.59207589 10.7148437,9.6983817 L7.7519077,12.4405692 C7.41587936,12.7519531 6.87790698,12.5075335 6.87790698,12.0429687 L6.87790698,10.9481027 C6.87790698,10.9112723 6.84847384,10.8811384 6.8125,10.8811384 L4.26162791,10.8811384 C4.11691497,10.8811384 4,10.7614397 4,10.6132812 L4,8.38671875 C4,8.23856027 4.11691497,8.11886161 4.26162791,8.11886161 L6.8125,8.11886161 C6.84847384,8.11886161 6.87790698,8.08872768 6.87790698,8.05189732 L6.87790698,6.9561942 C6.87790698,6.49162946 7.41587936,6.24720982 7.7519077,6.55859375 Z" id="形状结合"></path>
            </g>
        </g>
    </g>
</svg>