<?xml version="1.0" encoding="UTF-8"?>
<svg width="27px" height="31px" viewBox="0 0 27 31" version="1.1" xmlns="http://www.w3.org/2000/svg" xmlns:xlink="http://www.w3.org/1999/xlink">
    <title>icon-fuzhi</title>
    <defs>
        <linearGradient x1="89.020587%" y1="98.1735642%" x2="9.5%" y2="0%" id="linearGradient-1">
            <stop stop-color="#7EA4D1" offset="0%"></stop>
            <stop stop-color="#D4E4F6" offset="100%"></stop>
        </linearGradient>
    </defs>
    <g id="H5端-回流活动" stroke="none" stroke-width="1" fill="none" fill-rule="evenodd">
        <g id="K系列【H5】-回流活动-分享弹窗" transform="translate(-30.000000, -643.000000)" fill="url(#linearGradient-1)">
            <g id="ActionSheet/View/ToolsSheet_1-Row" transform="translate(0.000000, 608.000000)">
                <g id="ActionSheet/View/_resource/ActionItem" transform="translate(14.000000, 20.000000)">
                    <g id="icon-fuzhi" transform="translate(16.000000, 15.000000)">
                        <path d="M18.4090909,6.25 C19.7050909,6.25 20.77488,7.2868 20.8583895,8.586256 L20.8636364,8.75 L20.8636364,27.5 C20.8636364,28.82 19.8456873,29.9096 18.5698578,29.994656 L18.4090909,30 L2.45454546,30 C1.15854546,30 0.0887563641,28.9632 0.00524683639,27.663744 L9.9475983e-14,27.5 L9.9475983e-14,8.75 C9.9475983e-14,7.43 1.0179491,6.3404 2.29377863,6.255344 L2.45454546,6.25 L18.4090909,6.25 Z M12.75,22 L5.25,22 C4.55964406,22 4,22.5596441 4,23.25 C4,23.8972087 4.49187466,24.4295339 5.12219476,24.4935464 L5.25,24.5 L12.75,24.5 C13.4403559,24.5 14,23.9403559 14,23.25 C14,22.5596441 13.4403559,22 12.75,22 Z M24.5454545,-1.95399252e-14 C25.8954545,-1.95399252e-14 27,1.125 27,2.5 L27,2.5 L27,21.25 C27,22.625 25.8954545,23.75 24.5454545,23.75 L24.5454545,23.75 L23.3181818,23.75 L23.3181818,6.25 C23.3181818,4.87500003 22.2136364,3.75000002 20.8636364,3.75000002 L20.8636364,3.75000002 L6.13636364,3.75000002 L6.13636364,2.5 C6.13636364,1.125 7.24090907,-1.95399252e-14 8.59090907,-1.95399252e-14 L8.59090907,-1.95399252e-14 Z M15.75,17 L5.25,17 C4.55964406,17 4,17.5596441 4,18.25 C4,18.8972087 4.49187466,19.4295339 5.12219476,19.4935464 L5.25,19.5 L15.75,19.5 C16.4403559,19.5 17,18.9403559 17,18.25 C17,17.5596441 16.4403559,17 15.75,17 Z M8.75,12 L5.25,12 C4.55964406,12 4,12.5596441 4,13.25 C4,13.8972087 4.49187466,14.4295339 5.12219476,14.4935464 L5.25,14.5 L8.75,14.5 C9.44035594,14.5 10,13.9403559 10,13.25 C10,12.5596441 9.44035594,12 8.75,12 Z" id="形状结合"></path>
                    </g>
                </g>
            </g>
        </g>
    </g>
</svg>