<?xml version="1.0" encoding="UTF-8"?>
<svg width="375px" height="500px" viewBox="0 0 375 500" version="1.1" xmlns="http://www.w3.org/2000/svg" xmlns:xlink="http://www.w3.org/1999/xlink">
    <title>转盘光 2</title>
    <defs>
        <ellipse id="path-1" cx="400" cy="250" rx="400" ry="250"></ellipse>
        <radialGradient cx="50%" cy="49.3469238%" fx="50%" fy="49.3469238%" r="19.5855713%" gradientTransform="translate(0.500000,0.493469),scale(0.624455,1.000000),rotate(90.000000),translate(-0.500000,-0.493469)" id="radialGradient-3">
            <stop stop-color="#FFFFFF" offset="0%"></stop>
            <stop stop-color="#FFFFFF" stop-opacity="0" offset="100%"></stop>
        </radialGradient>
    </defs>
    <g id="亿博-h5-抽奖活动" stroke="none" stroke-width="1" fill="none" fill-rule="evenodd">
        <g id="中奖弹窗-十连抽有温馨提示" transform="translate(0.000000, -156.000000)">
            <g id="转盘光-2" transform="translate(0.000000, 156.000000)">
                <g id="形状结合" transform="translate(-229.000000, 0.000000)">
                    <mask id="mask-2" fill="white">
                        <use xlink:href="#path-1"></use>
                    </mask>
                    <g id="Mask"></g>
                    <path d="M415.83763,260.000181 L474.165471,860 L357.511336,860 L415.83763,260.000181 Z M415.837514,260.000133 L273.296266,854.468149 L159.19091,839.30926 L415.837514,260.000133 Z M415.837553,260.00006 L672.486478,839.309188 L558.381122,854.467835 L415.837553,260.00006 Z M415.837746,260.000157 L859.589955,793.299606 L753.021045,822.954507 L415.837746,260.000157 Z M415.837553,260.000133 L78.6561886,822.954966 L-27.9131087,793.300066 L415.837553,260.000133 Z M415.837553,260.000157 L1027.29957,723.98255 L932.924328,766.837451 L415.837553,260.000157 Z M415.83763,260.000133 L-101.247597,766.837911 L-195.62323,723.982767 L415.83763,260.000133 Z M415.83763,260.000012 L1168.28578,634.386749 L1090.2286,688.5691 L415.83763,260.000012 Z M415.837514,260.000012 L-258.551913,688.569584 L-336.609478,634.387716 L415.837514,260.000012 Z M415.837746,260.00006 L1276.38555,528.429108 L1218.05887,591.570348 L415.837746,260.00006 Z M415.837862,260.00006 L-386.382485,591.570831 L-444.709939,528.429592 L415.837862,260.00006 Z M78.6546795,-302.954507 L415.836,259.999 L415.835,259.999 L415.835,260 L415.837591,260.000133 L415.83,260.001 L-479.151848,480.081002 L-515.200413,410.740003 L415.82,260.002 L-532.805948,358.972162 L-545,286.462361 L415.83,260 L415.832,260 L-545,233.537857 L-532.805948,161.028297 L415.833,260 L415.834,260 L-515.200761,109.260335 L-479.152583,39.9195788 L415.835,259.999 L-444.71021,-8.42947082 L-386.383142,-71.5704687 L415.835,259.999 L-336.610059,-114.387353 L-258.55288,-168.569221 L415.836,259.999 L-195.623849,-203.982816 L-101.248603,-246.837475 L415.836,259.999 L-27.9142308,-273.299848 L78.6546795,-302.954507 Z M415.837746,260.000109 L1346.8761,410.739423 L1310.82831,480.080179 L415.837746,260.000109 Z M415.837591,260.000085 L1376.67541,286.461998 L1364.48214,358.971558 L415.837591,260.000085 Z M1364.48163,161.02791 L1376.67607,233.537228 L415.837475,260.000109 L1364.48163,161.02791 Z M1310.82757,39.9191193 L1346.87614,109.259876 L415.837785,260.000157 L1310.82757,39.9191193 Z M1218.05821,-71.5708315 L1276.38566,-8.42983358 L415.837475,260.000181 L1218.05821,-71.5708315 Z M273.294564,-334.467835 L415.837,259.997 L415.837824,259.999988 L415.838,259.998 L753.019923,-302.954966 L859.58922,-273.300066 L415.839,259.998 L415.84,259.997 L932.923709,-246.837911 L1027.29895,-203.983009 L415.845,259.994 L1090.22802,-168.569584 L1168.2852,-114.387716 L415.841,259.997 L415.837707,260.000109 L415.838,259.999 L415.837824,259.999988 L159.189208,-319.309188 L273.294564,-334.467835 Z M474.164427,-340 L415.838,259.994 L558.379845,-334.468028 L672.485201,-319.309381 L415.837,259.997 L357.509905,-340 L474.164427,-340 Z" fill="url(#radialGradient-3)" mask="url(#mask-2)"></path>
                </g>
            </g>
        </g>
    </g>
</svg>