<svg xmlns="http://www.w3.org/2000/svg" xmlns:xlink="http://www.w3.org/1999/xlink" width="72" height="72" viewBox="0 0 72 72">
    <defs>
        <linearGradient id="b" x1="13.197%" x2="87.952%" y1="7.276%" y2="100%">
            <stop offset="0%" stop-color="#0052D4"/>
            <stop offset="45.8%" stop-color="#4364F7"/>
            <stop offset="100%" stop-color="#6FD1FC"/>
        </linearGradient>
        <rect id="a" width="72" height="72" rx="16.997"/>
        <linearGradient id="d" x1="75.199%" x2="50%" y1="41.486%" y2="74.432%">
            <stop offset="0%" stop-color="#FFF"/>
            <stop offset="49.229%" stop-color="#C3C3C3"/>
            <stop offset="100%" stop-color="#FFF"/>
        </linearGradient>
        <linearGradient id="e" x1="50%" x2="50%" y1="0%" y2="100%">
            <stop offset="0%" stop-color="#FFF"/>
            <stop offset="100%" stop-color="#FFF" stop-opacity="0"/>
        </linearGradient>
        <linearGradient id="f" x1="50%" x2="50%" y1="0%" y2="100%">
            <stop offset="0%" stop-color="#FFF"/>
            <stop offset="100%" stop-color="#FFF" stop-opacity="0"/>
        </linearGradient>
        <rect id="g" width="72" height="72" rx="15.996"/>
        <linearGradient id="i" x1="50%" x2="50%" y1="0%" y2="100%">
            <stop offset="0%" stop-color="#FFF"/>
            <stop offset="100%" stop-color="#FFF" stop-opacity="0"/>
        </linearGradient>
        <linearGradient id="j" x1="50%" x2="50%" y1="0%" y2="100%">
            <stop offset="0%" stop-color="#FFF"/>
            <stop offset="100%" stop-color="#FFF" stop-opacity="0"/>
        </linearGradient>
        <linearGradient id="k" x1="75.199%" x2="50%" y1="41.486%" y2="74.432%">
            <stop offset="0%" stop-color="#FFF"/>
            <stop offset="49.229%" stop-color="#C3C3C3"/>
            <stop offset="100%" stop-color="#FFF"/>
        </linearGradient>
    </defs>
    <g fill="none" fill-rule="evenodd">
        <mask id="c" fill="#fff">
            <use xlink:href="#a"/>
        </mask>
        <use fill="url(#b)" xlink:href="#a"/>
        <g fill="#FFF" fill-rule="nonzero" mask="url(#c)">
            <path d="M36.083 47.09c0 .67-.281 1.579-.843 2.73.107.32.16.762.16 1.324 0 2.595-1.444 5.177-4.334 7.745-2.194 1.926-4.28 3.284-6.26 4.073-1.98.79-4.267 1.184-6.863 1.184-1.765 0-3.23-.588-4.394-1.766-1.164-1.177-1.746-2.662-1.746-4.454 0-2.381.937-4.742 2.81-7.083 1.872-2.341 4.22-4.234 7.042-5.679 2.823-1.445 5.572-2.167 8.247-2.167 1.873 0 3.371.368 4.495 1.104 1.124.735 1.686 1.732 1.686 2.99zm-.964.321c0-1.15-.474-2.066-1.424-2.749-.95-.682-2.214-1.023-3.793-1.023-2.407 0-4.842.649-7.303 1.946-2.462 1.298-4.508 3.044-6.14 5.238-1.633 2.193-2.449 4.44-2.449 6.742 0 1.765.516 3.13 1.546 4.093 1.03.963 2.448 1.445 4.253 1.445 1.806 0 3.726-.462 5.76-1.385 2.033-.923 3.838-2.26 5.417-4.013 1.578-1.752 2.475-3.645 2.689-5.679-1.365 1.525-3.184 2.89-5.458 4.094a.631.631 0 0 1-.22.08c-.04 0-.061-.013-.061-.04 0 .027.375-.268 1.124-.883 2.033-1.712 3.558-3.197 4.575-4.454-.188-1.044-.69-1.96-1.505-2.75-.816-.789-1.826-1.357-3.03-1.705-.455-.107-1.278-.194-2.468-.26-1.19-.068-1.84-.128-1.947-.181l.12-.08c.937-.295 2.027-.442 3.271-.442 1.245 0 2.535.314 3.873.943s2.301 1.465 2.89 2.508a3.96 3.96 0 0 0 .28-1.445zm12.401 3.491c0-.106-.067-.04-.2.201-.75 1.365-1.425 3.01-2.027 4.937-.602 1.926-.903 3.183-.903 3.772 0 1.632.294 2.448.883 2.448.187 0 .575-.254 1.163-.763.054 0 .08.107.08.321 0 .696-.394 1.044-1.183 1.044-.79 0-1.405-.355-1.846-1.064-.442-.709-.662-1.591-.662-2.648 0-1.057.214-2.468.642-4.234-2.087 3.398-3.485 5.538-4.194 6.42-.709.884-1.398 1.325-2.067 1.325a2.137 2.137 0 0 1-1.665-.742c-.442-.495-.662-1.037-.662-1.625 0-1.124.588-2.977 1.765-5.559 1.178-2.581 1.766-3.926 1.766-4.033l-.361-.722c0-.08.1-.12.301-.12.2 0 .635.133 1.304.4.67.268 1.004.496 1.004.683-.268.535-.997 2.02-2.188 4.455-1.19 2.434-1.785 4.073-1.785 4.916 0 .842.173 1.264.521 1.264.428 0 1.044-.482 1.846-1.445.803-.963 1.592-2.087 2.368-3.371l3.371-5.458c.375-.642.803-.963 1.284-.963.963 0 1.445.187 1.445.561zm6.06-9.029l-1.405.281c-.187 0-.28-.08-.28-.24 0-.402.494-.603 1.484-.603s1.766.174 2.328.522c.562.348.843.836.843 1.465 0 .629-.522 1.973-1.566 4.033l-2.086 4.094c.856-.59 1.832-.883 2.93-.883 1.845 0 2.768.896 2.768 2.688 0 2.06-.983 4.321-2.95 6.783-1.966 2.461-3.832 3.692-5.598 3.692-1.31 0-2.38-.656-3.21-1.967a.704.704 0 0 1-.08-.2c0-.027.026-.067.08-.12.856.615 1.672.922 2.448.922 1.766 0 3.444-1.09 5.036-3.27 1.592-2.181 2.388-4.341 2.388-6.482 0-.83-.28-1.244-.843-1.244-1.15 0-2.515 1.17-4.093 3.512-1.579 2.34-2.368 4.193-2.368 5.558 0 .214.094.535.281.963 0 .08-.114.12-.341.12-.227 0-.421-.187-.582-.561a3.233 3.233 0 0 1-.24-1.285c0-1.498.641-3.732 1.926-6.701l2.93-6.743c.614-1.685.922-2.829.922-3.43 0-.603-.24-.904-.722-.904z"/>
        </g>
        <text fill="#FFF" font-family="Helvetica" font-size="40.131" mask="url(#c)">
            <tspan x="-212.025" y="69.689">Oub</tspan>
        </text>
        <text fill="#FFF" font-family="Helvetica" font-size="59.016" mask="url(#c)">
            <tspan x="-93.545" y="193.918">Oub</tspan>
        </text>
        <g mask="url(#c)">
            <path fill="url(#d)" d="M24.91 6.39c1.983 0 8.884 7.898 10.402 14.326 3.63-3.171 7.539-4.13 7.85-4.13.41 0 .72.328.72.765 0 .195-.15.478-.399.946-.789 1.487-2.429 4.582-2.429 10.481l.002.087c.008.247.023.708-.242.981-.133.136-.313.205-.537.205-.301 0-.534-.208-.58-.516a16.475 16.475 0 0 1-.171-2.38c0-2.712.642-5.55 1.86-8.233-2.987 1.183-4.554 2.676-5.503 3.58-.608.578-1.009.96-1.433.96-.402 0-.684-.262-.72-.667-.421-4.803-7.254-14.176-9.113-14.176-.048 0-.135.057-.292.16l-.097.062c-3.372 2.162-8.072 9.779-8.382 13.584-.046.56-.607 1.109-1.132 1.109-.326 0-.63-.299-1.13-.795-.842-.83-2.227-2.199-5.02-3.431 1.074 2.529 1.64 5.16 1.64 7.633 0 .463-.02.924-.06 1.373 3.995-1 8.382-1.505 13.044-1.505 2.52 0 14.92.708 14.92 2.111 0 .372-.308.788-.721.788-.524 0-1.805-.125-3.428-.283-3.127-.306-7.409-.724-10.735-.724-7.348 0-11.878 1.281-13.583 1.763-.48.136-.745.21-.88.21-.444 0-.742-.318-.742-.793 0-.264.094-.54.265-.783-.046-6.139-1.604-9.094-2.355-10.515-.244-.463-.39-.742-.39-.952 0-.577.564-1.143 1.137-1.143.032 0 3.909.75 7.653 4.035C16.616 12.405 23.832 6.39 24.91 6.39zm5.836 18.877c0 .235-.213.498-.499.498l-.22-.014a79.377 79.377 0 0 0-5.804-.232c-3.467 0-5.505.288-6.724.462-.487.068-.84.118-1.084.118-.385 0-.58-.148-.58-.441a.67.67 0 0 1 .54-.633c2.69-.461 5.18-.685 7.61-.685.068 0 6.76.113 6.76.927zm-5.973-14.301c.133 0 .256.054.357.157 1.759 1.376 2.775 3.371 2.775 5.462 0 2.212-1.14 4.06-2.774 4.502a.67.67 0 0 1-.318.085c-.03 0-2.943-.395-2.943-4.368 0-2.28 1.067-4.68 2.537-5.708a.649.649 0 0 1 .366-.13zm-.22 2.111c-.603 1.069-.908 2.17-.908 3.275 0 1.414.595 2.357 1.307 3.412.553-.728.823-1.54.823-2.477 0-1.37-.574-2.826-1.222-4.21zm12.031 1.76c1.012 0 1.617 2.931 1.617 2.96 0 .288-.267.56-.55.56a.421.421 0 0 1-.344-.182c-.609-.839-.846-1.34-.96-1.582l-.034-.07c-.017.013-.035.03-.055.047-.289.248-.826.712-1.208.712a.389.389 0 0 1-.4-.415c0-.654 1.085-2.03 1.934-2.03zm-22.678-1.056c.873 0 1.573 1.622 1.573 1.827 0 .33-.285.642-.585.642-.223 0-.842-.352-1.206-.642-.488 1.094-.978 1.693-1.39 1.693-.214 0-.369-.173-.369-.41 0-.245.842-3.11 1.977-3.11zm-8.107-1.813c1.378 1.157.125 3.37-1.48 3.37-.85 0-1.504-.677-1.623-1.52-.703-1.018 1.388-3.29 3.103-1.85zm40.047 0c1.379 1.157.126 3.37-1.48 3.37-.85 0-1.503-.677-1.623-1.52-.703-1.018 1.389-3.29 3.103-1.85zM26.903.62c1.839 1.542.168 4.492-1.973 4.492-1.133 0-2.005-.902-2.164-2.024C21.83 1.728 24.617-1.3 26.903.62z" transform="translate(11.077 8.327)"/>
            <path fill="url(#e)" d="M18.135.134H53.03l18.127 25.988H.008z" opacity=".2" transform="translate(.844 -.134)"/>
            <path fill="url(#f)" d="M25.957.134h19.346l13.498 26.414H10.66z" opacity=".1" transform="translate(.844 -.134)"/>
        </g>
        <path fill="url(#d)" d="M35.987 14.718c1.983 0 8.884 7.897 10.402 14.325 3.63-3.171 7.539-4.13 7.85-4.13.41 0 .72.328.72.765 0 .195-.15.478-.399.946-.789 1.487-2.429 4.582-2.429 10.482l.002.086c.008.247.023.708-.242.981-.133.136-.313.205-.537.205-.301 0-.534-.208-.58-.516a16.475 16.475 0 0 1-.171-2.38c0-2.712.642-5.55 1.86-8.233-2.988 1.183-4.554 2.676-5.503 3.58-.608.578-1.009.96-1.433.96-.402 0-.684-.262-.72-.666-.421-4.804-7.254-14.177-9.113-14.177-.048 0-.135.057-.292.16l-.097.062c-3.372 2.162-8.072 9.779-8.382 13.584-.047.56-.607 1.11-1.132 1.11-.326 0-.63-.3-1.13-.796-.842-.83-2.227-2.199-5.02-3.431 1.073 2.529 1.64 5.16 1.64 7.633 0 .463-.02.924-.06 1.373 3.995-1 8.382-1.505 13.044-1.505 2.52 0 14.92.709 14.92 2.112 0 .371-.309.787-.721.787-.524 0-1.805-.125-3.428-.283-3.127-.306-7.409-.724-10.735-.724-7.348 0-11.878 1.281-13.583 1.763-.48.136-.745.21-.88.21-.444 0-.742-.318-.742-.793 0-.264.094-.54.265-.783-.046-6.138-1.604-9.094-2.355-10.515-.244-.463-.39-.742-.39-.952 0-.577.564-1.143 1.137-1.143.032 0 3.908.75 7.653 4.035 2.287-8.118 9.503-14.132 10.581-14.132zm5.835 18.876c0 .235-.213.498-.498.498l-.221-.014a79.377 79.377 0 0 0-5.803-.232c-3.467 0-5.506.288-6.724.462-.487.069-.84.118-1.084.118-.385 0-.58-.148-.58-.441a.67.67 0 0 1 .54-.633c2.69-.461 5.18-.685 7.61-.685.068 0 6.76.113 6.76.927zM35.85 19.293c.133 0 .256.054.357.158 1.759 1.375 2.775 3.37 2.775 5.461 0 2.212-1.14 4.06-2.774 4.502a.67.67 0 0 1-.318.085c-.03 0-2.943-.395-2.943-4.368 0-2.28 1.067-4.68 2.537-5.708a.649.649 0 0 1 .366-.13zm-.22 2.111c-.603 1.07-.908 2.17-.908 3.275 0 1.414.595 2.357 1.307 3.412.553-.728.823-1.54.823-2.477 0-1.37-.574-2.826-1.222-4.21zm12.031 1.76c1.012 0 1.617 2.931 1.617 2.96 0 .288-.267.56-.55.56a.421.421 0 0 1-.344-.182c-.609-.839-.846-1.34-.96-1.582l-.034-.07c-.017.013-.035.03-.055.047-.289.249-.826.712-1.208.712a.389.389 0 0 1-.4-.415c0-.654 1.084-2.03 1.934-2.03zm-22.678-1.056c.872 0 1.573 1.622 1.573 1.827 0 .33-.285.642-.585.642-.223 0-.842-.351-1.206-.642-.488 1.094-.978 1.693-1.39 1.693-.214 0-.37-.173-.37-.41 0-.245.843-3.11 1.978-3.11zm-8.107-1.813c1.378 1.157.125 3.37-1.48 3.37-.85 0-1.504-.677-1.623-1.52-.703-1.018 1.388-3.29 3.103-1.85zm40.047 0c1.379 1.157.125 3.37-1.48 3.37-.85 0-1.503-.677-1.623-1.52-.703-1.018 1.389-3.29 3.103-1.85zM37.98 8.947c1.838 1.542.167 4.492-1.973 4.492-1.133 0-2.005-.902-2.164-2.024-.937-1.36 1.851-4.388 4.137-2.468z" mask="url(#c)"/>
        <g mask="url(#c)">
            <path fill="url(#d)" d="M24.91 6.39c1.983 0 8.884 7.898 10.402 14.326 3.63-3.171 7.539-4.13 7.85-4.13.41 0 .72.328.72.765 0 .195-.15.478-.399.946-.789 1.487-2.429 4.582-2.429 10.481l.002.087c.008.247.023.708-.242.981-.133.136-.313.205-.537.205-.301 0-.534-.208-.58-.516a16.475 16.475 0 0 1-.171-2.38c0-2.712.642-5.55 1.86-8.233-2.987 1.183-4.554 2.676-5.503 3.58-.608.578-1.009.96-1.433.96-.402 0-.684-.262-.72-.667-.421-4.803-7.254-14.176-9.113-14.176-.048 0-.135.057-.292.16l-.097.062c-3.372 2.162-8.072 9.779-8.382 13.584-.046.56-.607 1.109-1.132 1.109-.326 0-.63-.299-1.13-.795-.842-.83-2.227-2.199-5.02-3.431 1.074 2.529 1.64 5.16 1.64 7.633 0 .463-.02.924-.06 1.373 3.995-1 8.382-1.505 13.044-1.505 2.52 0 14.92.708 14.92 2.111 0 .372-.308.788-.721.788-.524 0-1.805-.125-3.428-.283-3.127-.306-7.409-.724-10.735-.724-7.348 0-11.878 1.281-13.583 1.763-.48.136-.745.21-.88.21-.444 0-.742-.318-.742-.793 0-.264.094-.54.265-.783-.046-6.139-1.604-9.094-2.355-10.515-.244-.463-.39-.742-.39-.952 0-.577.564-1.143 1.137-1.143.032 0 3.909.75 7.653 4.035C16.616 12.405 23.832 6.39 24.91 6.39zm5.836 18.877c0 .235-.213.498-.499.498l-.22-.014a79.377 79.377 0 0 0-5.804-.232c-3.467 0-5.505.288-6.724.462-.487.068-.84.118-1.084.118-.385 0-.58-.148-.58-.441a.67.67 0 0 1 .54-.633c2.69-.461 5.18-.685 7.61-.685.068 0 6.76.113 6.76.927zm-5.973-14.301c.133 0 .256.054.357.157 1.759 1.376 2.775 3.371 2.775 5.462 0 2.212-1.14 4.06-2.774 4.502a.67.67 0 0 1-.318.085c-.03 0-2.943-.395-2.943-4.368 0-2.28 1.067-4.68 2.537-5.708a.649.649 0 0 1 .366-.13zm-.22 2.111c-.603 1.069-.908 2.17-.908 3.275 0 1.414.595 2.357 1.307 3.412.553-.728.823-1.54.823-2.477 0-1.37-.574-2.826-1.222-4.21zm12.031 1.76c1.012 0 1.617 2.931 1.617 2.96 0 .288-.267.56-.55.56a.421.421 0 0 1-.344-.182c-.609-.839-.846-1.34-.96-1.582l-.034-.07c-.017.013-.035.03-.055.047-.289.248-.826.712-1.208.712a.389.389 0 0 1-.4-.415c0-.654 1.085-2.03 1.934-2.03zm-22.678-1.056c.873 0 1.573 1.622 1.573 1.827 0 .33-.285.642-.585.642-.223 0-.842-.352-1.206-.642-.488 1.094-.978 1.693-1.39 1.693-.214 0-.369-.173-.369-.41 0-.245.842-3.11 1.977-3.11zm-8.107-1.813c1.378 1.157.125 3.37-1.48 3.37-.85 0-1.504-.677-1.623-1.52-.703-1.018 1.388-3.29 3.103-1.85zm40.047 0c1.379 1.157.126 3.37-1.48 3.37-.85 0-1.503-.677-1.623-1.52-.703-1.018 1.389-3.29 3.103-1.85zM26.903.62c1.839 1.542.168 4.492-1.973 4.492-1.133 0-2.005-.902-2.164-2.024C21.83 1.728 24.617-1.3 26.903.62z" transform="translate(-96.333 8.327)"/>
        </g>
        <g>
            <mask id="h" fill="#fff">
                <use xlink:href="#g"/>
            </mask>
            <use fill="url(#b)" xlink:href="#g"/>
            <g mask="url(#h)">
                <path fill="url(#i)" d="M19.344.068h37.22L75.9 27.788H.009z" opacity=".2" transform="translate(-.3 -.068)"/>
                <path fill="url(#j)" d="M27.687.068h20.637L62.72 28.243H11.37z" opacity=".1" transform="translate(-.3 -.068)"/>
            </g>
            <g mask="url(#h)">
                <path fill="url(#k)" d="M24.514 6.817c2.116 0 9.477 8.423 11.095 15.28 3.872-3.383 8.042-4.405 8.373-4.405.438 0 .768.35.768.815 0 .208-.16.51-.425 1.01-.84 1.586-2.59 4.887-2.59 11.18l.002.092c.008.264.024.755-.259 1.047-.141.145-.333.219-.572.219-.322 0-.57-.222-.62-.551a17.574 17.574 0 0 1-.182-2.54c0-2.892.685-5.92 1.984-8.78-3.186 1.262-4.857 2.854-5.87 3.817-.647.617-1.075 1.025-1.528 1.025-.429 0-.73-.28-.767-.71-.45-5.124-7.739-15.122-9.721-15.122-.052 0-.144.06-.312.17l-.103.066c-3.597 2.306-8.61 10.43-8.942 14.49-.049.597-.647 1.183-1.207 1.183-.348 0-.671-.32-1.206-.848-.897-.885-2.375-2.345-5.353-3.66 1.144 2.698 1.748 5.505 1.748 8.142 0 .494-.021.985-.063 1.465 4.26-1.066 8.94-1.606 13.913-1.606 2.688 0 15.915.756 15.915 2.253 0 .396-.33.84-.77.84-.558 0-1.925-.134-3.656-.303-3.335-.325-7.902-.771-11.45-.771-7.839 0-12.67 1.366-14.49 1.88-.511.145-.793.225-.937.225-.474 0-.792-.34-.792-.847 0-.282.1-.576.283-.835-.05-6.548-1.712-9.7-2.512-11.217-.26-.493-.417-.79-.417-1.015 0-.615.602-1.22 1.214-1.22.034 0 4.169.802 8.163 4.305 2.44-8.66 10.136-15.074 11.286-15.074zM30.74 26.95c0 .251-.228.532-.532.532-.016 0-.097-.006-.236-.016a84.669 84.669 0 0 0-6.19-.247c-3.698 0-5.872.308-7.172.493-.52.073-.895.126-1.156.126-.411 0-.62-.158-.62-.471 0-.277.22-.614.577-.675 2.87-.492 5.526-.73 8.118-.73.072 0 7.21.12 7.21.988zm-6.37-15.254c.14 0 .272.058.38.168 1.876 1.467 2.96 3.596 2.96 5.826 0 2.359-1.216 4.33-2.959 4.802a.714.714 0 0 1-.339.09c-.032 0-3.14-.42-3.14-4.659 0-2.43 1.138-4.991 2.707-6.089a.692.692 0 0 1 .39-.138zm-.235 2.252c-.644 1.14-.97 2.314-.97 3.493 0 1.508.635 2.515 1.395 3.64.59-.777.878-1.643.878-2.642 0-1.461-.612-3.015-1.303-4.49zm12.833 1.877c1.079 0 1.724 3.127 1.724 3.158 0 .307-.285.596-.586.596a.45.45 0 0 1-.367-.193c-.65-.895-.903-1.43-1.024-1.687l-.037-.076-.058.05c-.308.266-.881.76-1.29.76a.415.415 0 0 1-.425-.443c0-.698 1.156-2.165 2.063-2.165zM12.777 14.7c.93 0 1.678 1.73 1.678 1.948 0 .352-.304.685-.625.685-.237 0-.898-.375-1.286-.685-.52 1.167-1.044 1.806-1.483 1.806-.228 0-.393-.184-.393-.437 0-.26.898-3.317 2.108-3.317zm-8.648-1.934c1.47 1.233.134 3.594-1.579 3.594-.906 0-1.604-.722-1.73-1.62-.75-1.087 1.48-3.51 3.309-1.974zm42.717 0c1.47 1.233.134 3.594-1.579 3.594-.906 0-1.603-.722-1.73-1.62-.75-1.087 1.48-3.51 3.309-1.974zM26.64.662c1.961 1.644.179 4.791-2.105 4.791-1.208 0-2.138-.962-2.308-2.16-1-1.449 1.975-4.68 4.413-2.631z" transform="translate(12.672 7.682)"/>
                <path fill="#FFF" fill-rule="nonzero" d="M19.997 47.57c2.083.908 1.613 4.217.353 6.536-1.361 2.503-3.478 4.468-5.763 3.628-1.377-.504-1.915-1.764-1.915-3.141 0-3.579 3.142-6.687 5.04-7.359.974-.336 1.814-.15 2.285.336zm-.874 6.065c1.529-2.805 1.462-5.325.538-5.661-.823-.303-2.957.84-4.536 3.292-1.613 2.504-1.647 5.343-.504 5.83 1.109.47 3.091-.874 4.502-3.46zm6.023-4.62c-.672-.033-1.025-.403-1.142-.672-.084-.185-.034-.269.168-.285 1.176-.101 2.688-.924 3.813-.992.857-.05 1.68.219 1.983 1.361.302 1.126-.017 2.067-.588 2.806a6.888 6.888 0 0 1-2.621 1.999c.319.151.588.386.806.706.353.52.336 1.512-.386 2.301-.74.807-2 1.395-2.94 1.563-.639.117-1.042.1-1.411-.084a2.359 2.359 0 0 1-.857-.773c-.252-.37-.42-.639-.034-1.714.672-1.881 1.949-4.334 3.209-6.216zm-.773 3.747c3.327-.773 5.393-3.041 4.973-4.184-.336-.873-2-.1-3.158.27.033.369-.084.873-.504 1.646-.336.621-.824 1.41-1.31 2.268zm1.294.84c-.235.05-.47.084-.706.117-.47.05-.806 0-1.041-.117-.454.873-.874 1.764-1.126 2.604-.185.588 0 .79.538.722 1.075-.134 2.52-.823 3.242-1.714.622-.772.622-1.528-.907-1.612zm3.738 3.276c.201-.454.621-.706.957-.588.336.117.437.554.252 1.008-.184.436-.621.705-.957.588-.336-.118-.437-.605-.252-1.008zm9.13-2.739c.085-.185.27-.185.353.034.42 1.125-.655 2.385-1.36 2.89-1.193.856-2.604.84-3.512.352-.756-.403-1.41-1.445-1.444-2.822-.068-3.562 2.923-6.603 4.804-7.325.908-.353 1.73-.42 2.268.05.37.32.756.807.89 1.227.152.487.102.957-.15 1.478s-.488 1.176-.672 1.663c-.05.135-.168.236-.37.101-.386-.252-.655-.773-.403-1.613.269-.89.873-1.848.487-2.25-.47-.505-3.024.856-4.536 3.36-1.478 2.452-1.31 4.938-.487 5.61 1.075.874 2.856-.252 4.133-2.755zm9.955-6.569c2.083.908 1.612 4.217.352 6.536-1.36 2.503-3.477 4.468-5.762 3.628-1.378-.504-1.915-1.764-1.915-3.141 0-3.579 3.141-6.687 5.04-7.359.974-.336 1.814-.15 2.285.336zm-.874 6.065c1.529-2.805 1.462-5.325.538-5.661-.824-.303-2.957.84-4.536 3.292-1.613 2.504-1.647 5.343-.504 5.83 1.108.47 3.09-.874 4.502-3.46zm7.132-3.343c-1.496 2.251-3.377 5.258-4.368 7.51-.068.168-.168.168-.286.033-.235-.252-.42-.823-.034-1.831.622-1.596 3.344-6.082 5.158-8.551.151-.219.32-.286.538-.101.655.571.84 1.16.403 2.486a109.272 109.272 0 0 0-1.781 5.93c1.831-2.99 4.284-5.493 6.132-8.366.151-.235.286-.252.487-.05.672.689.504 1.613.05 2.453-1.175 2.184-2.855 5.577-3.695 7.997-.068.168-.135.168-.27.05-.268-.218-.47-.722-.184-1.831.252-.991 1.327-3.343 2.42-5.443-1.916 2.318-3.865 4.888-5.074 7.14-.084.168-.168.218-.303.117-.554-.403-.806-.991-.638-2.033.151-.957.705-3.276 1.445-5.51z"/>
            </g>
        </g>
    </g>
</svg>
