<svg width="24" height="24" viewBox="0 0 24 24" fill="none" xmlns="http://www.w3.org/2000/svg">
<rect opacity="0.01" width="24" height="24" fill="#EEF2F9"/>
<path fill-rule="evenodd" clip-rule="evenodd" d="M19.2659 7.56332H17.5319C17.7717 7.08174 17.8688 6.50308 17.8212 5.97391C17.7736 5.30008 17.5319 4.72142 17.0998 4.3845C16.8104 4.14466 16.3764 4 15.8968 4C14.9812 4 13.9704 4.48158 13.1995 5.30008C12.9216 5.57796 12.7422 5.85584 12.5799 6.10702C12.5455 6.16039 12.5118 6.21254 12.4781 6.26324C12.2859 5.92632 12.0441 5.58941 11.7548 5.30008C10.9363 4.48158 9.92554 4 9.05755 4C8.57597 4 8.19147 4.14466 7.85455 4.3845C7.42056 4.72142 7.18072 5.30008 7.13123 5.97391C7.08364 6.50308 7.17882 7.03415 7.42056 7.56332H5.68458C4.76901 7.56332 4 8.33423 4 9.29739V10.0683C4 10.9344 4.67383 11.7053 5.49233 11.8024V17.3891C5.49233 18.9785 6.74482 20.2786 8.33423 20.2786H16.6658C18.2076 20.2786 19.5077 18.9785 19.5077 17.3891V11.7548C20.3738 11.6577 21 10.9363 21 10.0207V9.2498C20.9981 8.33233 20.2291 7.56332 19.2659 7.56332ZM14.0162 6.11853C14.69 5.39711 15.4609 5.15536 15.9425 5.15536C16.1347 5.15536 16.327 5.20295 16.4241 5.30003C16.5211 5.39711 16.6658 5.63695 16.7134 6.02145C16.7134 6.26319 16.7134 6.93702 16.2318 7.51378H13.1977C13.3423 6.98461 13.6316 6.50303 14.0162 6.11853ZM8.52663 5.29994C8.38197 5.39511 8.2373 5.63685 8.2373 6.02136C8.2373 6.31069 8.28489 6.93693 8.71889 7.51559H11.753C11.6084 6.98452 11.319 6.50294 10.9345 6.11844C10.2112 5.39702 9.4898 5.15527 9.00821 5.15527C8.81596 5.15527 8.62371 5.20286 8.52663 5.29994ZM5.10645 10.0664V9.29546C5.10645 8.95854 5.34628 8.7168 5.6851 8.7168H11.8981V10.6431H5.6851C5.34819 10.645 5.10645 10.3557 5.10645 10.0664ZM6.6001 11.8003V17.387C6.6001 18.3007 7.37101 19.1192 8.33417 19.1192H11.9451C11.8975 19.0716 11.8975 18.9745 11.8975 18.9269V11.8003H6.6001ZM18.4001 17.4365C18.4001 18.3997 17.5797 19.1211 16.666 19.1211H13.0532C13.0532 19.0973 13.0651 19.0611 13.077 19.025C13.0889 18.9888 13.1008 18.9526 13.1008 18.9288V11.8003H18.3982V17.387L18.4001 17.4365ZM19.2661 10.6451C19.605 10.6451 19.8448 10.4033 19.8448 10.0664V9.29739C19.8448 8.96048 19.5555 8.71873 19.2661 8.71873H13.0532V10.6451H19.2661Z" fill="#4E6693"/>
</svg>
