<svg width="20" height="20" viewBox="0 0 20 20" fill="none" xmlns="http://www.w3.org/2000/svg">
<path fill-rule="evenodd" clip-rule="evenodd" d="M10.3566 2.03645C6.41461 2.03645 3.19451 5.39765 3.19451 9.57143H2.14288C2.14288 4.83745 5.82044 1 10.3566 1C14.8934 1 18.5709 4.83797 18.5715 9.57143H17.5198C17.5198 5.39713 14.2987 2.03645 10.3566 2.03645ZM18.5714 10.2857L18.0035 10.8537C17.7248 14.8637 14.5238 18.057 10.5361 18.3213L10 18.8571C14.734 18.8571 18.5714 15.0197 18.5714 10.2857Z" fill="white"/>
<path d="M5.00002 10.0367V11.9628C4.98394 13.014 4.18918 13.8571 3.2143 13.8571C2.23943 13.8571 1.44467 13.014 1.42859 11.9628V10.0372C1.44467 8.98596 2.23943 8.14285 3.2143 8.14285C4.18918 8.14285 4.98394 8.98596 5.00002 10.0372V10.0367Z" fill="white"/>
<path d="M17.5 8.14285C18.4862 8.14285 19.2857 8.99575 19.2857 10.0478V11.9523C19.2856 13.0044 18.4862 13.8571 17.5 13.8571C16.5139 13.8571 15.7144 13.0044 15.7143 11.9523V10.0478C15.7143 8.99575 16.5138 8.14285 17.5 8.14285V8.14285Z" fill="white"/>
<path fill-rule="evenodd" clip-rule="evenodd" d="M12.8571 10.0415V7.67218C12.8571 7.11774 12.519 6.71429 12.1429 6.71429C11.7668 6.71429 11.4286 7.16846 11.4286 7.67218V10.0421C11.4286 10.5966 11.7668 11 12.1429 11C12.519 11 12.8571 10.5966 12.8571 10.0421V10.0415ZM8.57114 11C8.9848 11 9.28569 10.5464 9.28569 10.042V7.67232C9.28569 7.1178 8.94738 6.7143 8.57114 6.7143C8.19542 6.7143 7.85712 7.16795 7.85712 7.67232V10.042C7.85712 10.5464 8.15749 11 8.57114 11ZM12.1429 18.1429C12.1429 17.7484 11.7777 17.4286 11.3272 17.4286H9.38731C9.09584 17.4285 8.82649 17.5647 8.68074 17.7857C8.53499 18.0067 8.53499 18.279 8.68074 18.5C8.82649 18.7211 9.09584 18.8572 9.38731 18.8572H11.3272C11.7777 18.8571 12.1429 18.5373 12.1429 18.1429Z" fill="white"/>
</svg>
