<?xml version="1.0" encoding="UTF-8"?>
<svg width="20px" height="20px" viewBox="0 0 20 20" version="1.1" xmlns="http://www.w3.org/2000/svg" xmlns:xlink="http://www.w3.org/1999/xlink">
    <!-- Generator: Sketch 54 (76480) - https://sketchapp.com -->
    <title>help_icon</title>
    <desc>Created with Sketch.</desc>
    <g id="个人中心模块-1128" stroke="none" stroke-width="1" fill="none" fill-rule="evenodd">
        <g id="画板" transform="translate(-22.000000, -89.000000)">
            <g id="icon" transform="translate(22.000000, 89.000000)">
                <circle id="椭圆形" stroke="#333333" stroke-width="1.5" cx="10" cy="10" r="9"></circle>
                <path d="M9.99998793,5 C11.6541988,5 13,6.30879432 13,7.91751773 C13,8.93105503 12.4580679,9.86915812 11.5782492,10.3930656 C11.5699444,10.3993811 11.561519,10.4056262 11.5528521,10.4116365 C11.5478065,10.4151582 11.5426644,10.4184686 11.5375222,10.4218494 C11.5250768,10.4300403 11.512389,10.4378774 11.4994749,10.4453507 C11.4974229,10.4465246 11.4954915,10.4477924 11.4934395,10.4489428 C11.0240773,10.712716 10.7298146,11.200679 10.7210511,11.7266525 C10.7551392,12.0680669 10.5281592,12.3914738 10.1756668,12.4771678 C10.1167129,12.4914893 10.0576141,12.4983448 9.99945681,12.4983448 C9.67492043,12.4983448 9.37964375,12.2847436 9.29736896,11.964694 C9.27518277,11.8783896 9.27233406,11.8050684 9.27233406,11.7508111 C9.27233406,10.7523466 9.80444046,9.81940862 10.668374,9.28855173 C10.700536,9.26318821 10.7348791,9.24055848 10.7710244,9.22091215 C11.2524574,8.95880581 11.5515002,8.45943267 11.5515002,7.91751773 C11.5515002,7.08553437 10.8554719,6.40866894 9.99998793,6.40866894 C9.14450395,6.40866894 8.4484998,7.08553437 8.4484998,7.91751773 C8.4484998,8.30649818 8.12422898,8.6218522 7.7242499,8.6218522 C7.32427082,8.6218522 7,8.30649818 7,7.91751773 C7,6.30879432 8.34577702,5 9.99998793,5 Z M9.12748408,14.1547986 C9.12748408,13.6880068 9.51659335,13.3095972 9.99658395,13.3095972 C10.4765746,13.3095972 10.8656838,13.6880068 10.8656838,14.1547986 C10.8656838,14.45676 10.7000343,14.7357838 10.4311339,14.8867645 C10.1622335,15.0377452 9.83093445,15.0377452 9.56203401,14.8867645 C9.29313356,14.7357838 9.12748406,14.45676 9.12748408,14.1547986 Z" id="形状结合" fill="#4080FF" fill-rule="nonzero"></path>
            </g>
        </g>
    </g>
</svg>