<?xml version="1.0" encoding="UTF-8"?>
<svg width="16px" height="16px" viewBox="0 0 16 16" version="1.1" xmlns="http://www.w3.org/2000/svg" xmlns:xlink="http://www.w3.org/1999/xlink">
    <!-- Generator: Sketch 54 (76480) - https://sketchapp.com -->
    <title>select_icon@2x</title>
    <desc>Created with Sketch.</desc>
    <g id="个人中心模块-1128" stroke="none" stroke-width="1" fill="none" fill-rule="evenodd">
        <g id="画板" transform="translate(-20.000000, -19.000000)" fill="#4080FF">
            <g id="item" transform="translate(20.000000, 19.000000)">
                <g id="编组">
                    <path d="M16,0 L16,11 C16,13.7614237 13.7614237,16 11,16 L0,16 L16,0 Z M9.93846154,13.5384615 C10.0307692,13.6461538 10.1846154,13.6461538 10.2769231,13.5384615 L14.6307692,9.13846154 C14.7230769,9.04615384 14.7230769,8.8923077 14.6307692,8.8 L14.2923077,8.46153846 C14.2,8.36923077 14.0461539,8.36923077 13.9538462,8.46153846 L10.2153846,12.2307692 C10.1538461,12.2923077 10.0461538,12.2923077 9.98461538,12.2307692 L8.07692308,10.3076923 C7.98461538,10.2153846 7.83076923,10.2153846 7.73846154,10.3076923 L7.4,10.6461538 C7.3076923,10.7384615 7.3076923,10.8923077 7.4,10.9846154 L9.93846154,13.5384615 Z" id="形状结合"></path>
                </g>
            </g>
        </g>
    </g>
</svg>