<svg width="18" height="18" viewBox="0 0 18 18" fill="none" xmlns="http://www.w3.org/2000/svg">
<rect opacity="0.01" width="18" height="18" fill="black"/>
<path fill-rule="evenodd" clip-rule="evenodd" d="M13.875 2.29736C15.5319 2.29736 16.875 3.66879 16.875 5.36052V13.0184C16.875 14.7102 15.5319 16.0816 13.875 16.0816H4.125C2.46815 16.0816 1.125 14.7102 1.125 13.0184V5.36052C1.125 3.66879 2.46815 2.29736 4.125 2.29736H13.875ZM15.75 6.67308L10.29 9.32808C9.47392 9.72494 8.52608 9.72494 7.71 9.32808L2.25 6.67308V13.0184C2.25006 14.0434 3.04073 14.8865 4.04362 14.931L4.125 14.9329H13.875C14.8788 14.9328 15.7046 14.1255 15.7481 13.1015L15.75 13.0184V6.67308ZM4.125 3.44605H13.875L13.9564 3.44796C14.9593 3.49245 15.7499 4.33554 15.75 5.36052V5.40073L9.80625 8.2912L9.71513 8.33217C9.22513 8.53872 8.6724 8.52384 8.19375 8.2912L2.25 5.40111L2.25188 5.27743C2.29544 4.25342 3.12116 3.44611 4.125 3.44605Z" fill="#4E6693"/>
</svg>
