<svg width="18" height="18" viewBox="0 0 18 18" fill="none" xmlns="http://www.w3.org/2000/svg">
<rect opacity="0.01" width="18" height="18" fill="black"/>
<path fill-rule="evenodd" clip-rule="evenodd" d="M17.25 9C17.25 4.44375 13.5562 0.75 9 0.75C4.44375 0.75 0.75 4.44375 0.75 9C0.75 13.5562 4.44375 17.25 9 17.25C13.5562 17.25 17.25 13.5562 17.25 9ZM1.875 9C1.875 5.06512 5.06512 1.875 9 1.875C12.9349 1.875 16.125 5.06512 16.125 9C16.125 12.9349 12.9349 16.125 9 16.125C5.06512 16.125 1.875 12.9349 1.875 9ZM9.6 7.5C9.6825 7.5 9.75 7.5675 9.75 7.65V12.6C9.75 12.6398 9.7342 12.6779 9.70607 12.7061C9.67794 12.7342 9.63978 12.75 9.6 12.75H8.775C8.69216 12.75 8.625 12.6828 8.625 12.6V8.625H8.025C7.98522 8.625 7.94706 8.6092 7.91893 8.58107C7.8908 8.55294 7.875 8.51478 7.875 8.475V7.65C7.875 7.5675 7.9425 7.5 8.025 7.5H9.6ZM9.837 5.62497C9.703 5.3929 9.45536 5.24996 9.18739 5.25C8.77322 5.25006 8.4375 5.58583 8.4375 6C8.4375 6.41417 8.77322 6.74994 9.18739 6.75C9.45536 6.75004 9.703 6.6071 9.837 6.37503C9.971 6.14297 9.971 5.85703 9.837 5.62497Z" fill="#4E6693"/>
</svg>
