<svg width="18" height="18" viewBox="0 0 18 18" fill="none" xmlns="http://www.w3.org/2000/svg">
<rect opacity="0.01" width="18" height="18" fill="black"/>
<path fill-rule="evenodd" clip-rule="evenodd" d="M16.35 4.22886C17.0218 3.49559 16.997 2.36328 16.2938 1.66011V1.66049C15.5603 0.926979 14.3722 0.923628 13.6346 1.65299L8.20837 7.01924C7.92351 7.30102 7.76323 7.68505 7.76325 8.08574V9.33449C7.76325 9.7487 8.09904 10.0845 8.51325 10.0845H9.77512C10.168 10.0843 10.5452 9.93002 10.8255 9.65474L16.2817 4.29936L16.35 4.22886ZM11.7764 1.21757C11.7532 1.16149 11.6985 1.12494 11.6377 1.12499H4.125C2.46815 1.12499 1.125 2.46813 1.125 4.12499V13.875C1.125 15.5318 2.46815 16.875 4.125 16.875H13.875C15.5319 16.875 16.875 15.5318 16.875 13.875V6.36224C16.875 6.30153 16.8385 6.24678 16.7824 6.22354C16.7263 6.20031 16.6618 6.21316 16.6189 6.25611L15.7939 7.08111C15.7658 7.10927 15.75 7.14744 15.75 7.18724V13.875L15.7481 13.9564C15.7046 14.9593 14.8788 15.7499 13.875 15.75H4.125L4.04362 15.7481C3.04073 15.7045 2.25006 14.8788 2.25 13.875V4.12499L2.25188 4.04361C2.29544 3.04071 3.12116 2.25005 4.125 2.24999H10.8124C10.8523 2.25012 10.8906 2.23433 10.9189 2.20611L11.7439 1.38111C11.7868 1.33821 11.7997 1.27365 11.7764 1.21757ZM13.2529 3.61274L8.99925 7.81874C8.94027 7.87706 8.90229 7.95328 8.89125 8.03549L8.88825 8.08536V8.95911H9.77512C9.85648 8.95898 9.93558 8.93239 10.0005 8.88336L10.0376 8.85149L14.304 4.66349L13.2529 3.61236V3.61274ZM14.4259 2.45286L14.4679 2.41461H14.4675C14.7693 2.15754 15.218 2.1755 15.4984 2.45586C15.7845 2.74199 15.7845 3.20586 15.4984 3.49199L15.1069 3.87561L14.0527 2.82186L14.4259 2.45286Z" fill="#4E6693"/>
</svg>
