<svg width="16" height="16" viewBox="0 0 16 16" fill="none" xmlns="http://www.w3.org/2000/svg">
<mask id="mask0_131_11556" style="mask-type:alpha" maskUnits="userSpaceOnUse" x="0" y="0" width="16" height="16">
<path d="M16 0H0V16H16V0Z" fill="black"/>
</mask>
<g mask="url(#mask0_131_11556)">
<path d="M8 15C4.27813 15 1.25 11.9719 1.25 8.25C1.25 6.00469 2.3625 3.9125 4.225 2.65313L4.78438 3.48125C3.19844 4.55469 2.25 6.3375 2.25 8.25C2.25 11.4203 4.82969 14 8 14C11.1703 14 13.75 11.4203 13.75 8.25C13.75 6.29063 12.7672 4.48438 11.1187 3.41875L11.6625 2.57969C13.5953 3.82969 14.75 5.95 14.75 8.25C14.75 11.9719 11.7219 15 8 15ZM7.5 1.25H8.5V7.75H7.5V1.25Z" fill="#4E6693"/>
</g>
</svg>
